<svg width="800" height="621" viewBox="0 0 800 621" fill="none" xmlns="http://www.w3.org/2000/svg">
<path d="M493.805 310.339L494.715 309.799L495.155 308.759L494.845 307.789L494.285 306.829L493.955 305.829L494.085 305.149L494.715 303.999L494.825 303.369L494.845 302.789L495.045 301.399L495.035 300.929L494.225 299.749L493.085 299.859L491.835 300.479L490.655 300.879L489.255 300.509L488.295 299.879L487.405 299.809L486.225 301.119L484.615 303.869L484.085 305.319L483.805 306.939L483.945 308.119L484.755 308.289L485.855 308.059L486.885 308.009L487.355 308.269L488.155 309.039L488.585 309.269L489.315 309.179L490.055 308.839L490.775 308.579L491.485 308.749L492.985 310.079L493.805 310.339Z" fill="#ddd"/>
<path d="M498.726 281.619L496.676 279.339L494.106 278.369L491.376 278.699L488.876 280.339L482.706 286.559L481.716 286.759L480.316 286.229L476.226 283.989L474.796 283.589L473.436 283.909L470.876 285.559L469.806 285.529L467.916 285.959L466.726 288.939L466.256 292.569L466.536 294.949L468.196 294.189L469.716 294.289L471.246 294.529L472.906 294.189L473.586 294.119L475.076 294.659L475.786 294.819L476.416 294.759L476.996 294.599L480.026 293.249L481.466 293.289L484.636 294.889L485.556 293.699L487.086 292.499L488.406 291.259L488.636 289.979L487.626 288.329L487.406 287.659L487.676 287.189L488.416 286.679L489.996 285.799L491.296 285.319L494.006 285.089L494.906 284.659L495.716 283.829L497.716 282.189L498.726 281.619Z" fill="#ddd"/>
<path d="M347.576 620.619L349.276 620.529L350.166 619.129L351.336 615.569L352.706 613.919L356.206 610.719L360.396 606.889L361.416 605.539L362.296 603.899L363.786 599.959L364.826 597.169L365.906 595.849L370.466 593.639L375.056 591.43L380.226 588.93L382.636 587.719L382.876 587.409L382.836 587.079L382.886 586.869L383.406 586.919L383.556 587.009L383.716 587.049L383.866 587.039L389.266 585.159L393.466 583.689L393.756 583.419L394.066 582.559L394.376 582.279L401.256 579.619L406.886 577.459L411.316 575.749L414.676 573.539L415.846 575.089L419.056 577.279L420.366 578.769L421.266 580.419L421.816 580.969L422.786 581.459L425.326 582.329L426.186 582.839L427.576 584.129L430.996 588.93L433.366 590.769L435.946 591.819L438.736 592.149L444.176 591.839L450.156 591.49L452.826 590.74L454.236 590.659L458.506 589.609L459.356 589.669L460.766 590.249L461.526 590.389L462.296 590.219L464.556 588.93L467.086 589.749L469.436 590.999L471.806 591.459L474.426 589.979L475.136 588.93L475.876 588.329L476.156 587.669L476.106 586.029L476.476 584.99L477.416 584.159L481.186 581.839L484.196 579.439L486.036 578.509L487.766 578.069L492.376 578.029L496.396 577.979L502.666 576.919L510.836 575.519L518.846 574.149L522.636 573.499L524.866 572.609L526.856 571.299L526.916 571.229L528.486 569.469L529.296 567.749L530.236 564.009L530.956 562.209L531.306 561.639L531.726 561.119L535.726 557.829L540.186 554.149L546.236 551.269L552.326 548.379L558.316 545.529L561.996 543.779L567.966 542.399L572.016 541.469L577.276 540.259L578.866 539.889L583.516 538.24L585.466 537.769L588.676 537.959L591.436 538.119L594.196 538.279L596.966 538.439L599.716 538.599L602.486 538.759L605.246 538.919L608.006 539.079L610.766 539.24L613.526 539.399L616.296 539.559L618.926 539.719H619.046L621.816 539.879L624.576 540.039L627.336 540.199L630.096 540.359L632.856 540.519L635.746 540.689L637.286 540.039L641.506 535.479H641.516L644.546 532.149L650.266 525.879L655.986 519.609L661.696 513.329L667.416 507.059L668.036 506.379L673.136 500.789L678.846 494.509L684.566 488.229L690.276 481.959L693.526 478.609L696.776 475.259L700.026 471.909L703.276 468.559L706.536 465.199L709.786 461.849L713.026 458.499L716.276 455.149L718.576 452.919L719.696 451.829L720.786 450.779L723.166 448.459L725.556 446.139L726.646 445.089L729.236 442.579L731.826 440.059L734.406 437.549L736.996 435.039L739.596 432.519L742.176 429.999L744.766 427.489L747.356 424.969L749.936 422.449L752.536 419.929L755.126 417.419L757.706 414.899L760.306 412.379L762.896 409.869L765.486 407.349L768.076 404.829L770.666 402.309L773.256 399.789L775.346 397.749L775.836 397.269L778.426 394.749L781.026 392.229L783.616 389.709L786.196 387.189L788.786 384.669L791.376 382.149L793.966 379.629L796.566 377.109L799.156 374.589H791.556H781.826H774.876H766.486H758.196H750.606H745.866L742.746 373.019L739.376 371.889L734.916 370.369L730.436 368.859L725.966 367.339L721.486 365.829L717.016 364.319L712.546 362.799L708.066 361.289L703.596 359.779L699.126 358.269L694.656 356.749L690.186 355.239L685.706 353.719L681.246 352.209L676.766 350.699L672.296 349.179L667.816 347.669L663.116 346.109L658.426 344.549L653.726 342.989L649.026 341.439L644.326 339.869L639.636 338.319L634.936 336.759L630.246 335.199L625.546 333.639L620.856 332.079L616.146 330.519L611.456 328.959L606.756 327.399L602.066 325.839L597.366 324.279L592.666 322.719L588.396 321.299L586.306 320.069L582.586 316.669L575.806 310.449L571.056 306.099L566.956 302.339L566.196 301.919L565.336 301.979L564.036 302.479L563.046 302.379L558.946 299.899L556.166 298.229L555.486 297.379L555.256 296.369L555.116 294.559L554.796 293.589L553.586 291.139L553.096 290.659L552.026 289.939L551.516 289.469L551.156 288.889L550.656 287.709L550.136 287.179L549.696 286.959L548.256 286.589L547.096 285.299L546.376 283.169L544.826 274.549L543.816 272.809L541.816 271.909L539.396 271.479L537.446 270.689L535.966 269.199L534.946 266.689L534.506 264.909L533.826 263.139L532.876 261.539L531.606 260.239L526.496 256.909L525.116 255.229L523.616 251.929L522.616 248.449L521.936 243.509L521.356 242.029L520.536 240.959L517.596 238.079L516.176 235.829L515.106 233.399L515.036 232.249L515.736 231.739L516.796 231.419L517.836 230.829L518.466 229.929L518.866 228.859L519.376 226.649L519.876 225.339L520.506 224.469L522.416 222.919L523.246 222.029L523.586 221.199L523.796 220.299L524.216 219.219L525.036 218.359L527.266 217.419L528.166 216.659L528.566 215.739L529.106 213.529L529.776 212.369L528.936 212.079L528.406 212.539L527.876 213.189L527.086 213.479L526.386 213.369L525.066 212.979L522.866 212.759L521.676 212.499L520.776 211.729L519.426 208.769L518.406 208.389L517.136 208.339L513.356 207.439L512.956 207.469L510.906 207.629L506.116 209.089L502.576 211.439L501.426 211.979L500.626 211.939L499.796 211.659L498.586 211.459L496.846 212.049L496.396 212.099L495.436 212.059L494.986 212.109L493.086 212.969L492.356 213.149L491.356 213.139L488.616 212.509L485.676 212.829L484.246 213.309L482.596 214.989L481.126 215.359L478.106 215.489L477.746 215.639L477.506 215.909L477.226 216.109L476.756 216.039L476.436 215.779L476.306 215.449L476.116 215.179L469.826 213.889L468.496 213.389L468.106 212.869L468.096 212.879L467.536 213.129L466.636 213.689L465.626 214.089L464.096 214.239L442.836 214.089L441.676 214.469L440.606 215.569L440.176 216.949L439.976 218.429L439.656 219.819L438.146 222.309L434.026 226.369L432.186 228.619L431.706 229.699L431.596 230.729L431.906 232.979L431.876 234.479L424.236 263.949L424.246 265.299L424.706 266.669L425.586 267.449L427.936 268.399L428.426 269.139L427.646 270.339L420.916 276.199L417.996 279.489L413.256 286.849L412.466 288.869L411.496 292.779L411.016 296.529L411.306 296.379L411.516 296.309H411.756L412.106 296.379L415.076 296.389L417.696 295.869L420.176 295.849L422.716 297.349L423.216 298.449L422.496 299.149L421.166 299.519L419.836 299.599L417.446 299.079L416.486 299.219L416.286 300.299L416.606 301.659L417.096 302.779L417.886 303.569L419.086 303.949L420.206 303.899L421.526 303.619L423.866 302.789L425.546 301.689L426.106 301.399L426.676 301.279L427.276 301.269L427.856 301.189L428.356 300.909L429.326 300.059L430.366 299.349L431.476 298.759L434.036 297.819L435.266 297.239L436.416 296.519L437.566 295.619L438.986 294.089L439.566 293.709L441.646 293.209L443.926 293.309L448.326 294.179L452.396 295.629L453.546 295.709L454.506 295.209L456.376 293.589L457.446 293.029L458.676 292.729L460.046 292.579L461.236 292.769L461.936 293.509L462.676 294.589L463.836 295.149L465.186 295.249L466.536 294.949L466.256 292.569L466.726 288.939L467.916 285.959L469.806 285.529L470.876 285.559L473.436 283.909L474.796 283.589L476.226 283.989L480.316 286.229L481.716 286.759L482.706 286.559L488.876 280.339L491.376 278.699L494.106 278.369L496.676 279.339L498.726 281.619L500.846 282.269L501.516 284.579L501.176 289.869L502.866 290.199L504.796 292.169L506.516 294.649L509.956 301.549L510.096 302.009L510.186 303.239L510.326 304.079L512.106 309.179L512.706 310.249L513.686 311.229L513.896 311.659L513.786 313.099L513.896 314.059L514.866 316.199L518.136 321.429L521.836 325.509L522.906 326.479L525.246 328.189L526.216 329.129L526.666 331.289L524.956 336.309L525.526 338.729L528.236 341.559L528.826 342.639L529.126 343.959L529.266 345.419L529.216 346.889L528.746 349.509L528.666 350.949L528.346 352.199L527.436 352.919L522.726 354.139L521.606 354.729L520.186 356.779L518.056 364.609L516.166 366.829L514.366 366.459L512.756 364.509L511.476 361.979L510.526 359.159L508.966 350.149L507.386 347.879L504.346 346.609L497.966 345.389L497.246 344.709L495.156 340.859L491.586 341.829L486.556 346.119L484.346 348.409L482.276 351.049L481.886 352.339L482.196 355.479L482.116 356.899L481.466 358.349L478.486 362.559L477.406 365.179L476.896 368.179L476.166 381.199L476.326 382.559L476.826 383.839L477.776 385.419L478.066 387.769L477.166 390.789L474.726 396.269L473.976 398.469L473.826 399.499L473.896 400.709L474.376 403.569L474.796 405.169L475.296 405.999L491.606 412.409L491.976 412.829L492.656 416.189L492.406 418.739L491.656 421.169L490.596 422.829L490.386 423.259L490.336 423.869L490.396 425.049L490.296 425.749L490.036 426.339L489.306 427.449L488.666 429.129L488.546 429.099L488.356 429.379L487.996 429.659L487.726 430.069L487.846 430.749L486.066 431.709L485.506 432.489L485.306 433.879L485.186 434.179L484.696 435.129L484.576 435.709L484.776 436.899L484.696 437.439L484.216 438.109L484.766 439.109L484.246 440.349L482.756 442.539L481.846 446.279L481.306 447.299L480.606 448.349L480.446 448.779L480.186 449.269L479.796 449.839L478.416 451.259L478.036 451.539L476.906 452.159L475.686 452.649L474.436 452.939L473.156 452.979L472.336 451.219L470.256 451.439L467.956 452.759L466.476 454.349L464.666 457.939L463.846 458.919L461.836 460.289L461.006 461.049L460.406 462.269L451.736 453.399L450.656 452.579L449.436 451.929L448.136 451.499L445.456 451.069L438.836 447.559L436.316 445.829L433.766 444.639L431.186 444.769L429.896 445.529L428.776 446.589L426.136 450.139L423.026 453.169L422.176 454.319L420.086 458.079L419.726 459.269L420.166 461.849L420.006 464.069L420.306 465.299L420.736 466.529L421.006 467.649L421.066 469.019L421.006 470.399L420.816 471.769L420.486 473.099L420.106 475.859L420.836 486.059L420.746 490.319L420.876 491.869L421.256 493.309L423.136 497.869L419.256 500.739L411.506 505.049L403.116 512.649L402.156 513.079L400.766 513.329L400.386 513.569L399.926 513.769H397.446L393.486 514.68L391.276 514.879L389.626 515.24L388.256 515.189L387.806 515.24L385.106 516.199L383.966 516.339L380.126 515.579L378.216 514.789L376.706 513.919L375.896 513.959L374.756 514.809L369.686 522.119L366.426 530.559L364.416 534.499L363.316 538.869L361.746 543.249L360.736 549.089L360.566 552.229L360.236 553.649L351.876 573.059L349.896 575.529L349.546 576.229L348.426 580.93L346.726 585.459L346.476 586.569L346.586 587.629L347.266 589.849L345.726 593.169L338.436 605.639L336.716 607.849L334.636 609.199L330.116 611.149L325.766 613.519L326.136 613.93L325.516 614.479L330.316 616.689L332.386 617.129L334.416 617.079L336.486 615.889L336.826 615.689L337.526 615.729L337.776 616.289L337.286 617.269L343.936 617.469L345.576 618.019L346.036 618.619L346.326 619.339L346.726 620.059L347.576 620.619Z" fill="#ddd"/>
<path d="M311.634 316.27L311.204 316.06L311.014 315.3L309.884 316.35L309.604 316.5L309.324 316.33L308.984 315.58L308.714 315.36L308.064 315.41L305.954 315.89L305.244 316.12L304.414 316.86L303.474 318.16L302.694 319.58L302.314 320.71L302.414 320.89L302.794 321.39L302.684 321.79L302.894 322.18L303.234 322.6L303.514 323.09L303.824 324.25L303.994 324.66L304.374 325.19L304.914 325.7L305.274 325.84L305.614 325.88L306.064 326.08L306.664 326.55L307.144 327.06L308.164 328.35L308.774 328.84L309.854 329.41L310.924 329.55L311.484 328.74L311.874 327.65L312.574 327.54L313.354 327.65L314.014 327.24L314.084 326.43L313.284 324.42L313.124 323.47L314.224 323.8L314.774 323.89H315.354L315.214 323.24L315.364 322.68L315.614 322.09L315.784 321.36L315.724 320.3L315.444 319.35L314.114 316.33L312.974 316.21L311.634 316.27Z" fill="#ddd"/>
<path d="M176.584 324.029L177.204 323.839L177.814 323.559L178.334 323.169L178.714 322.659L177.904 322.239L176.914 321.069L176.284 320.679L173.964 321.929L173.634 322.249L173.494 322.569L173.594 322.889L173.934 323.209L174.694 323.619L175.134 323.989L175.624 324.169L176.584 324.029ZM166.514 319.209L164.264 318.619L163.444 318.669L163.064 319.229L162.984 320.129L162.994 321.109L162.904 321.919L162.584 322.459L161.664 323.529L161.334 324.209L161.304 324.849L161.564 326.179L161.524 326.829L161.474 326.959L161.414 327.049L161.244 327.259L161.484 327.829L161.854 328.259L162.344 328.559L162.924 328.769L163.034 328.489L163.344 328.389L164.344 328.409L164.604 328.379L165.184 328.249H165.414L165.664 328.379L165.994 328.859L166.164 328.979L167.324 328.949L168.084 328.489L169.414 327.099L169.904 327.889L171.234 328.939L171.764 329.609L171.854 330.059L171.764 330.459V330.899L172.094 331.449L172.464 331.709L172.934 331.879L173.924 332.009L173.804 331.399L173.564 330.849L172.944 329.899L173.694 329.539L173.704 328.819L173.214 328.109L172.434 327.789L172.294 326.639L172.374 324.979L172.644 323.369L173.044 322.349L172.424 322.589L171.724 322.579L171.034 322.289L170.424 321.679L170.014 321.039V320.779L170.314 320.539L170.814 319.969L170.614 319.889L170.474 319.789L170.304 319.639L169.484 319.439L168.734 319.189L168.044 319.089L167.434 319.359L166.514 319.209ZM184.414 298.549L184.244 297.369L184.794 296.319L186.934 295.379L187.344 294.949L187.354 294.309L187.084 293.869L185.324 292.569L184.384 292.329L183.424 292.549L182.374 293.249L181.714 294.019L181.414 294.829L180.854 296.899L182.104 301.169L182.744 302.209H182.774L182.934 302.179L183.154 301.039L183.824 300.719L185.604 301.059L184.414 298.549ZM148.344 155.859L148.004 156.109L146.544 159.659L145.704 160.849L138.964 166.179L137.664 167.529L136.554 168.439L135.454 168.599L133.974 168.469L132.444 168.719L129.464 169.689H128.314L127.074 169.049L125.714 167.889L124.234 166.299L122.194 161.429L120.784 160.219L120.754 161.209L120.644 161.749L119.034 163.559L115.464 164.939L114.304 165.389L112.244 166.739L111.424 167.789L110.704 169.039L110.124 170.369L109.744 171.669L109.714 172.769L110.114 174.829L110.014 177.049L110.404 178.169L111.514 180.389L111.644 181.399L111.444 182.479L104.734 197.379L104.584 198.549L105.094 200.019L106.034 201.069L106.704 202.179L106.504 203.869L102.984 214.259L102.944 214.859L103.454 215.559L105.034 216.729L105.334 217.539L104.924 219.399L104.024 220.699L101.144 222.909L100.174 223.829L99.954 224.479V225.129L99.634 226.099L98.944 226.999L98.364 227.069L97.714 226.879L96.814 226.969L96.164 227.549L95.454 229.219L95.024 229.649L94.464 229.439L94.384 228.649L94.604 227.019L94.264 226.199L93.564 225.579L91.994 224.559L85.544 218.849L84.894 218.589L83.994 218.939L77.564 223.389L76.644 224.199L75.804 225.329L73.744 229.349L69.164 235.869L68.744 237.789L68.984 240.029L71.574 251.949L71.634 254.399L71.184 256.689L71.014 256.999L70.494 257.529L70.344 257.819L70.334 258.429L70.524 259.749L70.434 260.349L69.234 262.159L66.094 265.089L59.504 283.819L57.834 291.849L58.034 295.979L58.694 309.449L61.164 309.489L71.144 310.359L72.614 310.189L73.644 309.529L74.404 308.529L74.984 307.609L75.444 306.619L75.854 305.369L77.924 295.979L78.994 286.009L80.334 285.229L81.504 285.199L83.484 284.849L84.434 285.039L85.704 285.889L88.134 288.049L89.524 288.809L91.184 288.589L97.164 282.099L99.224 278.289L102.324 268.499L101.884 267.659L101.144 266.849L100.604 265.579L100.894 265.109L107.684 265.609L108.584 265.889L108.874 266.469L108.764 267.819L108.854 269.139L109.434 270.019L110.834 270.059L114.984 269.479L116.734 269.549L119.234 269.909L120.234 269.939L121.294 270.119L122.434 270.699L124.414 272.239L135.154 282.989L142.404 291.869L145.044 294.529L147.274 294.179L147.984 294.199L148.734 295.199L149.774 297.509L149.914 298.179L149.854 301.169L150.404 301.839L151.064 302.169L151.714 302.269L153.264 302.169L155.344 302.299L156.384 302.239L156.934 302.459L157.334 303.169L157.744 304.209L159.674 307.589L160.214 308.259L160.814 308.339L162.514 308.149L163.344 309.169L164.114 312.539L165.314 313.039L173.084 302.839L174.564 298.489L175.224 294.609L174.884 291.649L173.324 290.039L172.414 289.469L168.804 285.229L167.144 283.789L167.224 283.509L168.244 282.709L168.714 281.819L168.654 280.749L168.084 279.419L167.774 278.319L168.104 273.229L167.664 263.709L168.274 263.689L169.234 264.379L170.274 264.349L171.314 263.919L173.444 262.739L178.184 259.309L179.924 257.289L182.784 252.679L183.574 251.679L185.534 249.589L186.544 248.799L187.604 248.339L190.934 247.979L191.234 248.199L189.424 253.469L189.264 254.109L189.514 254.399L190.494 254.709L191.374 255.119L192.294 255.369L193.424 255.169L194.594 252.719L195.294 252.149L199.994 249.809L200.924 249.839L203.234 251.269L206.124 252.469L207.264 253.359L212.794 255.049L213.774 255.159L214.464 254.809L214.994 254.059L215.524 253.059L215.904 251.969L216.584 250.109L208.914 248.629L206.734 247.849L205.654 247.609L203.164 247.459L202.604 247.309L202.104 247.049L201.764 246.709L201.484 246.359L201.164 246.109L200.694 246.079L199.404 246.459L198.904 246.489L192.824 245.929L190.374 245.959L189.314 245.559L188.594 244.519L188.514 243.569L188.674 242.599L188.664 241.689L188.104 240.899L187.494 240.659L186.914 240.759L184.284 242.019L183.014 241.919L181.724 241.089L180.554 239.739L179.494 237.989L178.694 235.689L178.304 232.689L181.774 224.729L181.054 223.809L179.854 223.789L178.844 224.159L178.074 224.899L177.604 225.999L177.444 226.059L177.334 225.089L177.324 223.549L177.464 221.919L178.784 218.869L178.764 218.149L178.914 217.289L179.594 216.169L180.494 215.039L181.344 214.159L184.084 212.029L185.574 210.449L186.884 208.079L185.294 204.649L185.494 203.979L185.924 203.019L185.824 201.899L185.534 200.769L185.414 199.799L185.924 198.569L186.894 197.279L187.734 195.669L187.864 193.519L184.624 190.199L183.724 189.639L182.464 188.549L182.904 187.419L183.974 186.359L184.604 185.459L184.504 185.039L181.414 180.259L179.614 178.429L178.994 177.409L178.754 172.569L179.014 168.949L178.634 168.359L177.404 168.789L175.344 170.279L173.224 172.109L170.984 174.519L169.984 175.139L168.914 175.289L167.844 174.779L167.064 172.329L166.674 169.579L166.124 168.279L164.804 166.739L162.964 163.639L162.724 163.309L160.464 161.429L159.814 160.689L159.124 159.239L158.664 158.609L157.344 157.849L157.104 157.599L156.234 157.369L154.754 157.359L153.384 157.179L152.864 156.429L152.704 156.139L152.184 156.059H150.564L148.344 155.859Z" fill="#ddd"/>
<path d="M304.905 263.63L306.945 263.16L310.455 261.26L311.155 260.48L313.425 249.61L313.495 247.64L312.555 246.86L306.385 245.8L293.945 246.41L293.415 246.84L293.145 247.35L291.725 253.19L291.395 253.81L290.915 254.21L290.425 254.4L290.135 254.71L290.185 255.48L290.525 256.6L290.595 257.16L290.485 257.76L289.725 258.81L288.535 259.4L287.175 259.63L285.905 259.6L284.545 259.24L284.015 259.23L283.485 259.34L282.045 259.88L280.535 260.19L280.075 260.48L279.905 260.71L279.515 261.73L279.415 261.89L278.075 263.22L277.655 263.5L277.155 263.74L273.965 264.57L266.415 268.14L263.935 269.91L263.435 270.11L262.465 270.17L261.955 270.26L261.565 270.47L261.265 270.79L260.775 271.51L260.325 271.99L256.545 274.11L256.045 274.24L255.615 274.18L255.205 274.06L254.735 273.98L253.935 274.16L252.425 274.96L251.575 275L246.595 271.27L245.785 270.32L245.525 269.65L244.255 268.21L243.185 266.71L242.435 266.14L237.345 263.88L235.555 263.33L233.715 263.12L232.925 263.41L232.665 264.09L232.475 264.88L231.895 265.5L231.335 265.57L230.885 265.32L230.535 264.87L230.275 264.37L230.085 263.76L230.065 262.57L229.975 261.93L229.535 261.38L228.715 260.98L227.815 260.76L227.105 260.73L226.465 260.87L226.155 260.9L225.815 260.82L225.315 260.54L224.035 259.22L223.335 257.39L223.965 255.74L224.765 254.21L224.585 252.73L223.765 252.34L220.185 252.33L219.145 251.96L218.145 251.38L216.585 250.11L215.905 251.97L215.525 253.06L214.995 254.06L214.465 254.81L213.775 255.16L212.795 255.05L207.265 253.36L206.125 252.47L203.235 251.27L200.925 249.84L199.995 249.81L195.295 252.15L194.595 252.72L193.425 255.17L192.295 255.37L191.375 255.12L190.495 254.71L189.515 254.4L189.265 254.11L189.425 253.47L191.235 248.2L190.935 247.98L187.605 248.34L186.545 248.8L185.535 249.59L183.575 251.68L182.785 252.68L179.925 257.29L178.185 259.31L173.445 262.74L171.315 263.92L170.275 264.35L169.235 264.38L168.275 263.69L167.665 263.71L168.105 273.23L167.775 278.32L168.085 279.42L168.655 280.75L168.715 281.82L168.245 282.71L167.225 283.51L167.145 283.79L168.805 285.23L172.415 289.47L173.325 290.04L174.885 291.65L175.225 294.61L174.565 298.49L173.085 302.84L165.315 313.04L164.115 312.54L163.345 309.17L162.515 308.15L160.815 308.34L160.215 308.26L159.675 307.59L157.745 304.21L157.335 303.17L156.935 302.46L156.385 302.24L155.345 302.3L153.265 302.17L151.715 302.27L151.065 302.17L150.405 301.84L149.855 301.17L149.915 298.18L149.775 297.51L148.735 295.2L147.985 294.2L147.275 294.18L145.045 294.53L142.405 291.87L135.155 282.99L124.415 272.24L122.435 270.7L121.295 270.12L120.235 269.94L119.235 269.91L116.735 269.55L114.985 269.48L110.835 270.06L109.435 270.02L108.855 269.14L108.765 267.82L108.875 266.47L108.585 265.89L107.685 265.61L100.895 265.11L100.605 265.58L101.145 266.85L101.885 267.66L102.325 268.5L99.2253 278.29L97.1653 282.1L91.1853 288.59L89.5253 288.81L88.1353 288.05L85.7053 285.89L84.4353 285.04L83.4853 284.85L81.5053 285.2L80.3353 285.23L78.9953 286.01L77.9253 295.98L75.8553 305.37L75.4453 306.62L74.9853 307.61L74.4053 308.53L73.6453 309.53L72.6153 310.19L71.1453 310.36L61.1653 309.49L58.6953 309.45L59.4653 325.06L60.2253 340.66L59.9853 342.01L61.2653 342.69L62.2453 343.66L62.8653 344.12L63.5253 343.97L66.0353 342.11L67.3253 341.68L68.6953 341.81L70.3353 342.51L73.0353 344.37L77.7053 348.88L80.3053 350.93L85.6653 353.63L87.2153 354.94L89.1253 357.74L90.2053 358.88L91.8253 359.59L94.9753 360.24L95.9653 361L96.8553 362.67L97.8753 364.07L99.2953 364.65L100.955 364.67L104.835 364.07L107.875 363.93L110.745 364.3L112.365 365.49L111.965 366.26L110.605 366.9L107.915 367.8L104.685 369.61L102.305 370.65L101.825 371.3L102.285 371.9L104.915 372.72L105.195 373.29L104.915 373.99L101.545 378.78L100.655 381L100.695 383.53L101.805 385.84L103.495 387.5L105.415 388.97L107.205 390.72L107.725 391.88L108.065 394.43L108.515 395.52L109.315 396.16L114.685 398.07L115.385 398.73L114.945 399.62L114.215 400.29L113.375 401.28L113.095 402.19L114.065 402.6L115.665 402.65L116.415 402.8L117.695 403.35L118.035 403.25L118.365 402.96L118.885 402.62L119.945 402.05L121.015 401.28L121.695 400.31L121.595 399.16L120.585 394.39L120.475 391.79L121.235 390.29L122.135 389.56L123.515 387.66L125.705 386.25L125.915 385.22L125.965 384.06L126.565 382.91L126.865 382.77L127.815 382.79L128.425 382.65L129.715 381.8L129.985 381.56L130.895 380.94L131.685 380.91L132.545 380.98L133.675 380.64L135.965 380.71L136.565 381.93L136.855 383L137.415 383.87L138.845 384.48L140.015 384.44L141.165 383.94L143.235 382.59L143.935 382.24L144.995 381.85L146.715 381.56L147.105 381.42L147.935 380.85L149.015 379.87L149.955 378.77L150.335 377.84L149.965 377.03L149.135 376.24L147.315 374.98L146.365 373.93L146.395 372.94L147.595 371.05L148.405 370.22L149.525 369.85L150.785 369.8L152.025 369.93L153.215 370.23L153.915 370.76L154.335 371.6L155.795 376.65L155.825 377.94L155.445 379.14L154.795 380.16L153.275 382.09L153.325 383.08L154.315 384.07L157.595 386.1L159.385 386.91L160.175 387.41L160.835 388.16L162.075 390.81L163.295 392.73L163.365 393.55L163.105 395.01L162.975 396.45L163.345 397.48L164.285 398.08L168.435 398.69L170.495 399.95L172.465 401.47L174.785 402.67L178.005 403.86L179.215 404.05L179.635 404.18L180.595 404.82L181.305 405.17L183.265 405.76L183.745 405.8L186.055 405.77L187.075 405.93L188.265 406.3L192.425 408.09H193.455L202.605 414.2L204.915 415.2L207.355 415.84L209.785 416.11L211.745 415.96L215.595 415.25L219.835 415.52L221.545 415.23L223.105 414.36L226.595 411.64L231.905 409.2L233.655 408.12L234.315 408.34L234.465 408.1L235.165 406.44L235.405 403.98L235.695 402.91L235.985 402.53L237.425 396.89L237.385 396.22L236.115 392.07L235.695 390.01L235.735 384.54L235.865 383.51L236.195 382.53L237.165 380.64L237.435 379.7L237.065 378.19L235.145 376.07V374.58L238.405 373.67L240.095 373.44L241.465 374.06L242.545 376.25L243.335 376.82L244.425 376.98L245.515 376.74L246.985 376.31L247.135 375.72L247.115 374.89L246.805 373.92L245.885 372.24L245.675 371.19L245.745 367.33L246.355 362.68L246.335 362.04L245.845 361.75L241.865 360.74L241.015 360.39L240.165 359.78L239.745 359.37L239.575 359.09L239.315 358.15L239.015 357.66L239.245 356.12L240.185 353.77L240.815 352.77L241.685 351.86L242.755 351.29L244.005 351.34L245.015 352.29L245.705 353.7L246.445 354.8L247.615 354.77L251.155 355.22L252.195 355.82L252.955 355.79L253.765 355.55L254.955 355.49L258.545 356.27L259.925 356.23L269.955 353.73L277.225 352.81L280.185 352.09L281.255 352.33L282.165 352.94L282.965 353.75L283.185 354.07L283.365 354.47L283.695 355.63L283.925 357.86L284.715 359.87L286.665 360.21L288.885 359.45L290.495 358.14L290.935 357.22L291.595 353.76L291.725 353.35L291.955 352.91L292.765 351.81L293.935 350.53L294.275 350.35L295.295 350.03L296.485 349.78L297.625 349.89L298.505 350.65L301.845 352.31L302.515 353.32L302.965 354.51L303.135 355.76L302.565 358.38L302.755 359.31L303.475 360.05L304.695 360.9L303.805 364.52L303.795 365.76L303.955 367.04L303.945 368.27L303.435 369.38L302.085 367.89L301.485 367.07L301.065 366.2L300.055 361.84L299.585 360.78L296.455 361.81L296.835 362.96L298.455 365.26L298.885 366.58L299.025 367.35L299.605 369.23L300.365 373.31L300.215 373.9L299.755 374.88L298.995 377.07L297.285 379.97L294.915 382.86L293.755 385.01L291.845 386.92L291.345 387.9L290.995 388.98L290.105 391L289.915 391.91L289.765 394.48L290.295 398.52L290.315 399.83L289.815 400.57L288.915 401L287.745 401.38L286.385 401.97L285.665 402.62L285.265 403.49L284.865 404.72L284.245 405.83L282.775 407.53L282.295 408.63L281.795 410.85L281.245 411.58L273.945 416.2L272.455 417.47L271.655 419.1L271.295 420.98L271.115 422.99L271.385 424.02L272.295 424.96L273.745 425.72L275.605 426.19L280.485 425.11L281.355 424.45L283.495 421.93L283.955 421.09L285.055 419.48L286.415 419.9L288.105 420.99L290.145 421.38L291.645 421.8L293.375 422.89L295.195 423.58L296.955 422.81L298.355 422.56L300.035 423.94L301.665 426.45L302.875 429.58L301.355 437.67L301.515 439.55L301.935 440.15L302.765 440.85L303.775 441.45L305.565 442.03L312.535 445.6L313.425 445.78L315.985 445.98L317.355 446.34L318.175 447.01L318.755 447.75L320.835 449.12L324.785 452.76L325.645 453.72L325.965 454.73L326.265 457.13L327.555 461.95L327.545 464.37L326.995 465.56L326.195 466.58L325.625 467.61L325.735 468.83L326.615 471.15L327.125 472.19L327.885 473.12L322.655 473.84L320.345 473.64L317.775 471.41V471.06L317.415 469.82L316.415 468.21L314.855 465.44L313.615 463.93L313.335 463.41L309.315 461.54L308.855 461.05L308.295 460.06L308.165 459.7L306.245 459.94L304.765 459.9L304.425 459.84L300.365 458.64L298.245 458.26L296.085 458.17L293.415 458.61L291.545 459.68L290.455 461.5L290.125 464.17L290.785 468.73L290.665 470.3L290.055 471.07L289.085 471.63L287.895 472.54L287.255 473.5L286.595 475.69L284.825 478.95L284.135 479.93L283.215 480.75L283.055 481.15L283.375 481.74L284.785 483.16L287.925 484.92L288.485 485.53L288.305 486.16L284.435 488.71L283.335 488.89L282.215 488.95L281.075 489.21L279.895 489.02L278.855 487.65L272.315 476.14L272.075 475.05L272.135 473.54L272.555 472.39L273.375 472.35L274.505 472.97L275.705 473.14L276.815 472.71L277.695 471.51L277.825 470.2L276.835 468.18L276.955 467.05L277.785 465.05L278.415 464.26L281.855 462.98L283.205 461.02L283.095 458.79L281.155 457.04L280.215 456.81L279.175 456.85L278.085 457.06L276.975 457.38L276.335 457.26L274.985 455.7L273.955 454.76L271.735 453.42L271.165 453.21L270.175 452.62L269.395 451.72L268.555 450.98L267.395 450.83L266.085 451.28L265.405 451.38L263.705 451.3L263.385 451.11L262.205 450.1L261.255 450.14L260.355 450.98L257.865 454.5L256.885 456.77L256.985 459.01L258.755 461.12L259.805 463.12L259.585 465.92L258.675 468.71L257.655 470.74L256.185 472.82L255.685 473.94L255.575 475.25L256.175 479.19L256.085 480.57L256.445 481.31L257.665 481.68L259.395 482.03L264.755 484.26L265.895 484.88L266.375 485.77L266.665 487.07L267.715 489.36L268.255 491.87L268.805 493.02L269.685 493.88L270.935 494.3L271.925 494.93L272.295 496.2L272.075 497.54L271.295 498.4L267.915 500.13L265.305 500.6L264.425 501.24L264.075 502.21L264.895 505.91L264.875 508.69L264.345 511.43L263.385 513.74L262.685 515.01L262.325 516.03L262.255 517.12L262.545 519.7L262.475 520.91L262.105 521.97L261.315 522.67L260.055 522.73L258.965 522.09L257.965 521.22L256.985 520.6L254.435 519.9L251.875 518.86L250.665 518.57L249.565 518.81L248.665 519.49L248.025 520.46L247.305 521.16L246.065 521.75L243.675 522.6L238.415 525.39L235.625 526.47L232.815 526.64L231.545 526.2L229.345 524.91L227.965 524.54L226.325 524.37L225.515 524.4L220.435 525.14H219.145L215.115 524.52L213.825 524.65L212.605 525.35L211.025 527.27L209.905 529.54L207.425 537.5L207.395 538.7L207.755 540.07L208.925 542.66L209.275 544.07L208.935 547.17L207.545 549.96L203.685 554.87L201.165 558.81L200.175 560.95L199.415 563.14L199.235 563.48L198.925 563.79L197.895 564.47L196.045 565.13L195.415 565.72L195.545 565.75L205.815 565.67L208.995 566.55L212.785 568.46L214.955 568.96L215.475 569.35L216.315 570.77L216.705 571.03L217.775 570.95L218.165 571.07L218.525 571.55L218.725 572.07L219.005 573.25L219.175 573.54L219.455 573.6H219.775L220.085 573.68L222.975 575.54L228.165 578.88L233.355 582.23L239.435 586.14L243.755 588.93L248.635 592.08L254.145 595.62L259.215 598.89L264.525 602.31L266.165 603.37L267.155 604.36L268.515 606.54L269.335 607.51L270.015 607.89L271.605 608.38L272.835 609.45L273.485 609.56L275.165 609.14L276.835 609.01L282.495 609.65L288.185 610.29L291.175 610.03L293.885 608.84L293.955 608.54L293.905 608.06L294.015 607.62L294.535 607.41L294.815 607.53L295.815 608.37L296.245 608.88L296.355 609.3L296.565 609.61L297.305 609.8L298.005 609.88L298.295 609.84L299.045 609.54L299.145 609.72L299.205 610.01L299.485 610.19L302.595 610.42L302.585 610.05L302.655 609.3L302.635 608.95L304.075 610.85L304.905 611.7L305.885 612.24L311.145 613.66L315.115 614.74L316.495 614.71L318.735 614.28L319.625 614.4L320.425 614.7L321.255 614.69L324.315 614.04L324.825 614.17L325.515 614.48L326.135 613.93L325.765 613.52L330.115 611.15L334.635 609.2L336.715 607.85L338.435 605.64L345.725 593.17L347.265 589.85L346.585 587.63L346.475 586.57L346.725 585.46L348.425 580.93L349.545 576.23L349.895 575.53L351.875 573.06L360.235 553.65L360.565 552.23L360.735 549.09L361.745 543.25L363.315 538.87L364.415 534.5L366.425 530.56L369.685 522.12L374.755 514.81L375.895 513.96L376.705 513.92L378.215 514.79L380.125 515.58L383.965 516.34L385.105 516.2L387.805 515.24L388.255 515.19L389.625 515.24L391.275 514.88L393.485 514.68L397.445 513.77H399.925L400.385 513.57L400.765 513.33L402.155 513.08L403.115 512.65L411.505 505.05L419.255 500.74L423.135 497.87L421.255 493.31L420.875 491.87L420.745 490.32L420.835 486.06L420.105 475.86L420.485 473.1L420.815 471.77L421.005 470.4L421.065 469.02L421.005 467.65L420.735 466.53L420.305 465.3L420.005 464.07L420.165 461.85L419.725 459.27L420.085 458.08L422.175 454.32L423.025 453.17L426.135 450.14L428.775 446.59L429.895 445.53L431.185 444.77L433.765 444.64L436.315 445.83L438.835 447.56L445.455 451.07L448.135 451.5L449.435 451.93L450.655 452.58L451.735 453.4L460.405 462.27L461.005 461.05L461.835 460.29L463.845 458.92L464.665 457.94L466.475 454.35L467.955 452.76L470.255 451.44L472.335 451.22L473.155 452.98L474.435 452.94L475.685 452.65L476.905 452.16L478.035 451.54L478.415 451.26L479.795 449.84L480.185 449.27L480.445 448.78L480.605 448.35L481.305 447.3L481.845 446.28L482.755 442.54L484.245 440.35L484.765 439.11L484.215 438.11L484.695 437.44L484.775 436.9L484.575 435.71L484.695 435.13L485.185 434.18L485.305 433.88L485.505 432.49L486.065 431.71L487.845 430.75L487.725 430.07L487.995 429.66L488.355 429.38L488.545 429.1L488.665 429.13L489.305 427.45L490.035 426.34L490.295 425.75L490.395 425.05L490.335 423.87L490.385 423.26L490.595 422.83L491.655 421.17L492.405 418.74L492.655 416.19L491.975 412.83L491.605 412.41L475.295 406L474.795 405.17L474.375 403.57L473.895 400.71L473.825 399.5L473.975 398.47L474.725 396.27L477.165 390.79L478.065 387.77L477.775 385.42L476.825 383.84L476.325 382.56L476.165 381.2L476.895 368.18L477.405 365.18L478.485 362.56L481.465 358.35L482.115 356.9L482.195 355.48L481.885 352.34L482.275 351.05L484.345 348.41L486.555 346.12L491.585 341.83L495.155 340.86L497.245 344.71L497.965 345.39L504.345 346.61L507.385 347.88L508.965 350.15L510.525 359.16L511.475 361.98L512.755 364.51L514.365 366.46L516.165 366.83L518.055 364.61L520.185 356.78L521.605 354.73L522.725 354.14L527.435 352.92L528.345 352.2L528.665 350.95L528.745 349.51L529.215 346.89L529.265 345.42L529.125 343.96L528.825 342.64L528.235 341.56L525.525 338.73L524.955 336.31L526.665 331.29L526.215 329.13L525.245 328.19L522.905 326.48L521.835 325.51L518.135 321.43L514.865 316.2L513.895 314.06L513.785 313.1L513.895 311.66L513.685 311.23L512.705 310.25L512.105 309.18L510.325 304.08L510.185 303.24L510.095 302.01L509.955 301.55L506.515 294.65L504.795 292.17L502.865 290.2L501.175 289.87L501.515 284.58L500.845 282.27L498.725 281.62L497.715 282.19L495.715 283.83L494.905 284.66L494.005 285.09L491.295 285.32L489.995 285.8L488.415 286.68L487.675 287.19L487.405 287.66L487.625 288.33L488.635 289.98L488.405 291.26L487.085 292.5L485.555 293.7L484.635 294.89L481.465 293.29L480.025 293.25L476.995 294.6L476.415 294.76L475.785 294.82L475.075 294.66L473.585 294.12L472.905 294.19L471.245 294.53L469.715 294.29L468.195 294.19L466.535 294.95L465.185 295.25L463.835 295.15L462.675 294.59L461.935 293.51L461.235 292.77L460.045 292.58L458.675 292.73L457.445 293.03L456.375 293.59L454.505 295.21L453.545 295.71L452.395 295.63L448.325 294.18L443.925 293.31L441.645 293.21L439.565 293.71L438.985 294.09L437.565 295.62L436.415 296.52L435.265 297.24L434.035 297.82L431.475 298.76L430.365 299.35L429.325 300.06L428.355 300.91L427.855 301.19L427.275 301.27L426.675 301.28L426.105 301.4L425.545 301.69L423.865 302.79L421.525 303.62L420.205 303.9L419.085 303.95L417.885 303.57L417.095 302.78L416.605 301.66L416.285 300.3L416.485 299.22L417.445 299.08L419.835 299.6L421.165 299.52L422.495 299.15L423.215 298.45L422.715 297.35L420.175 295.85L417.695 295.87L415.075 296.39L412.105 296.38L411.755 296.31H411.515L411.305 296.38L411.015 296.53L409.635 297.96L408.175 298.79L406.505 299.22L402.105 299.88L400.275 300.73L398.685 302.02L396.985 303.76L395.575 305.54L391.955 311.44L391.235 312.35L387.875 315.68L387.475 316.43L387.315 317.29L387.215 318.49L386.595 320.18L385.425 321.25L383.995 322.13L382.235 322.27L380.375 325.68L379.315 326.74L376.055 329L375.385 328.8L375.075 327.6L376.355 324.03L376.335 321.68L375.355 320.6L373.615 320.28L371.315 320.21L371.495 319.2L371.225 318.59L370.755 318.11L370.285 317.48L370.015 316.5L369.635 314.13L369.255 313.29L368.155 312.7L366.725 312.68L363.895 313.02L361.525 314.94L361.665 325.91L361.125 327.46L359.475 328.52L354.005 330.49L352.155 331.57L349.615 333.41L348.495 333.68L347.145 332.92L345.235 329.99L343.615 329.42L342.815 329.71L340.055 332.43L338.915 332.54L337.965 332.3L337.275 331.82L336.905 331.22L335.555 328.3L335.475 327.4L335.575 326.38L335.415 323.29L340.025 315.81L340.645 314.04L340.495 312.44L339.395 311.62L336.545 311.05L335.475 310.12L334.705 308.35L334.245 306.37L334.095 304.84L334.435 304.38L335.315 304.31L336.565 304.39L341.165 304.05L341.835 303.76L344.455 301.84L345.825 301.6L347.695 302.27L347.785 302.23L344.635 298.98L344.295 298.5L344.505 297.19L343.375 296.55L341.805 296.25L340.575 296.32L338.615 295.93L336.905 293.64L335.005 290.23L332.435 286.45L326.255 283.74L316.525 281.76L313.125 280.07L311.385 277.92L310.445 275.47L310.045 272.83L309.965 270.12L309.865 269.74L308.845 268.34L308.265 267.77L307.755 267.36L307.315 267.07L303.925 265.8L302.875 264.8L302.755 263.18L304.905 263.63ZM182.775 302.21H182.745L182.105 301.17L180.855 296.9L181.415 294.83L181.715 294.02L182.375 293.25L183.425 292.55L184.385 292.33L185.325 292.57L187.085 293.87L187.355 294.31L187.345 294.95L186.935 295.38L184.795 296.32L184.245 297.37L184.415 298.55L185.605 301.06L183.825 300.72L183.155 301.04L182.935 302.18L182.775 302.21ZM309.605 316.5L309.885 316.35L311.015 315.3L311.205 316.06L311.635 316.27L312.975 316.21L314.115 316.33L315.445 319.35L315.725 320.3L315.785 321.36L315.615 322.09L315.365 322.68L315.215 323.24L315.355 323.89H314.775L314.225 323.8L313.125 323.47L313.285 324.42L314.085 326.43L314.015 327.24L313.355 327.65L312.575 327.54L311.875 327.65L311.485 328.74L310.925 329.55L309.855 329.41L308.775 328.84L308.165 328.35L307.145 327.06L306.665 326.55L306.065 326.08L305.615 325.88L305.275 325.84L304.915 325.7L304.375 325.19L303.995 324.66L303.825 324.25L303.515 323.09L303.235 322.6L302.895 322.18L302.685 321.79L302.795 321.39L302.415 320.89L302.315 320.71L302.695 319.58L303.475 318.16L304.415 316.86L305.245 316.12L305.955 315.89L308.065 315.41L308.715 315.36L308.985 315.58L309.325 316.33L309.605 316.5ZM173.045 322.35L172.645 323.37L172.375 324.98L172.295 326.64L172.435 327.79L173.215 328.11L173.705 328.82L173.695 329.54L172.945 329.9L173.565 330.85L173.805 331.4L173.925 332.01L172.935 331.88L172.465 331.71L172.095 331.45L171.765 330.9V330.46L171.855 330.06L171.765 329.61L171.235 328.94L169.905 327.89L169.415 327.1L168.085 328.49L167.325 328.95L166.165 328.98L165.995 328.86L165.665 328.38L165.415 328.25H165.185L164.605 328.38L164.345 328.41L163.345 328.39L163.035 328.49L162.925 328.77L162.345 328.56L161.855 328.26L161.485 327.83L161.245 327.26L161.415 327.05L161.475 326.96L161.525 326.83L161.565 326.18L161.305 324.85L161.335 324.21L161.665 323.53L162.585 322.46L162.905 321.92L162.995 321.11L162.985 320.13L163.065 319.23L163.445 318.67L164.265 318.62L166.515 319.21L167.435 319.36L168.045 319.09L168.735 319.19L169.485 319.44L170.305 319.64L170.475 319.79L170.615 319.89L170.815 319.97L170.315 320.54L170.015 320.78V321.04L170.425 321.68L171.035 322.29L171.725 322.58L172.425 322.59L173.045 322.35ZM175.625 324.17L175.135 323.99L174.695 323.62L173.935 323.21L173.595 322.89L173.495 322.57L173.635 322.25L173.965 321.93L176.285 320.68L176.915 321.07L177.905 322.24L178.715 322.66L178.335 323.17L177.815 323.56L177.205 323.84L176.585 324.03L175.625 324.17ZM494.225 299.75L495.035 300.93L495.045 301.4L494.845 302.79L494.825 303.37L494.715 304L494.085 305.15L493.955 305.83L494.285 306.83L494.845 307.79L495.155 308.76L494.715 309.8L493.805 310.34L492.985 310.08L491.485 308.75L490.775 308.58L490.055 308.84L489.315 309.18L488.585 309.27L488.155 309.04L487.355 308.27L486.885 308.01L485.855 308.06L484.755 308.29L483.945 308.12L483.805 306.94L484.085 305.32L484.615 303.87L486.225 301.12L487.405 299.81L488.295 299.88L489.255 300.51L490.655 300.88L491.835 300.48L493.085 299.86L494.225 299.75Z" fill="#ddd"/>
<path d="M100.956 364.67L99.2955 364.65L97.8755 364.07L96.8555 362.67L95.9655 361L94.9755 360.24L91.8255 359.59L90.2056 358.88L89.1255 357.74L87.2155 354.94L85.6656 353.63L80.3055 350.93L77.7056 348.88L73.0355 344.37L70.3355 342.51L68.6955 341.81L67.3255 341.68L66.0355 342.11L63.5255 343.97L62.8655 344.12L62.2455 343.66L61.2655 342.69L59.9855 342.01L59.7655 343.21L59.0755 344.44L57.9755 345.67L52.7155 350.42L51.6155 351.08L50.6255 351.35L47.6155 351.36L45.7855 351.58L44.8955 351.82L44.0455 352.19L43.4855 352.56L41.2755 354.48L41.0455 354.55L40.4655 354.64L38.0455 354.33L36.7555 352.85L35.7055 351.01L34.0455 349.6L32.9555 349.42L32.1755 349.74L31.4155 350.17L30.4055 350.34L29.5955 350L28.7955 349.35L27.8955 348.83L26.8155 348.88L27.1055 349.28L27.0855 349.48L26.5855 349.76L22.9955 350.19L22.3055 350.03L21.8755 350.07L21.4755 350.28L20.7455 350.85L20.2355 351.02L14.4455 349.73L13.5155 349.87L11.9855 351.22L12.0355 351.43L12.1955 351.75L11.7955 352.11L10.9955 352.27L10.2555 352.63L10.0155 353.01L9.92555 353.42L9.93555 354.33L9.87555 354.58L9.60555 354.94L9.56555 355.23L9.68555 355.4L10.1655 355.75L10.2555 355.93L10.1355 356.59L9.67555 357.6L9.56555 358.01L9.74555 358.64L10.1155 359.16L10.4855 359.56L10.8855 360.16L11.3655 360.45L12.0855 360.75L12.0055 361.44L11.6355 361.72L11.1355 361.89L10.6555 362.25L10.2555 362.85L10.0355 363.34L9.94555 363.88L9.93555 364.64L10.0955 364.93L10.8255 365.45L10.9955 365.74L10.8455 366.81L10.4255 367.56L9.76555 368.1L8.84555 368.53L7.24555 368.8L7.02555 369.07L6.91555 369.52L6.66555 370.07L6.34555 370.58L3.31555 373.68L2.64555 374.6L2.37555 375.14L2.13555 376.27L1.87555 376.64L1.62555 376.91L1.38555 377.41L1.34555 377.5L0.635547 378.27L0.435547 378.85L1.78555 382.44L2.23555 383.27L3.15555 383.82L3.36555 384.28L3.52555 384.77L3.71555 385.1L4.08555 385.27L5.53555 385.43L6.71555 385.96L7.42555 386.06L7.74555 385.61L8.02555 385.49L9.74555 385.1L10.1955 385.18L11.7155 385.8L13.4455 386.06L13.8955 386.2L14.7155 386.91L15.5555 387.89L16.5155 388.76L19.4755 389.52L20.1555 389.5L21.4655 388.63L21.9355 388.4L24.2455 387.93L25.6155 387.88L26.5355 388.22L27.0155 388.59L27.9855 388.87L28.5155 389.14L29.0355 389.62L29.7755 390.6L30.3355 391.01L31.4755 391.33L34.9355 391.01L35.4955 391.15L36.9555 392.11L38.6355 392.59L39.1355 392.84L39.8555 393.65L41.5355 396.01L44.2255 398.01L44.7555 398.15L45.8555 398.28L46.4055 398.41L48.0055 399.35L54.6155 406.13L55.5255 407.61L55.8955 409.42L55.9255 414.43L56.0555 414.71L56.3955 414.87L58.8455 416.79L60.2955 418.61L61.3255 419.37L62.3255 419.15L63.2055 418.73L63.9355 419.17L64.4455 420.12L64.6955 421.22V422.9L65.8855 422.4L67.4556 423.29L69.0155 424.64L70.2355 425.52L71.6155 425.65L72.9755 425.31L75.5555 424.25L77.5155 423.84L79.6155 423.82L81.6055 424.3L83.2255 425.36L84.6155 426.49L86.1656 427.19L87.8255 427.5L89.5555 427.47L91.2655 427.16L92.5055 426.64L93.6155 425.82L94.9355 424.62L96.4455 423.48L97.9655 422.8L99.6055 422.48L101.506 422.39L104.726 422.54L106.126 422.13L106.806 420.84L107.846 421.2L109.106 420.93L110.266 420.24L111.016 419.33L111.966 420.22L113.276 421.01L114.686 421.61L115.926 421.95L117.256 421.88L119.506 420.84L120.786 420.59L123.876 421.2L125.126 421.03L125.536 419.76L125.396 419.33L124.876 418.3L124.746 417.76L124.776 417.19L124.976 416.08L124.996 415.53L125.116 414.78L125.736 413.38L125.806 412.66L125.766 411.92L125.856 411.2L126.906 407.51L127.036 406.37L126.646 405.27L125.756 404.41L122.076 402.44L121.566 401.74L122.106 400.17L121.596 399.16L121.696 400.31L121.016 401.28L119.946 402.05L118.886 402.62L118.366 402.96L118.036 403.25L117.696 403.35L116.416 402.8L115.666 402.65L114.066 402.6L113.096 402.19L113.376 401.28L114.216 400.29L114.946 399.62L115.386 398.73L114.686 398.07L109.316 396.16L108.516 395.52L108.066 394.43L107.726 391.88L107.206 390.72L105.416 388.97L103.496 387.5L101.806 385.84L100.696 383.53L100.656 381L101.546 378.78L104.916 373.99L105.196 373.29L104.916 372.72L102.286 371.9L101.826 371.3L102.306 370.65L104.686 369.61L107.916 367.8L110.606 366.9L111.966 366.26L112.366 365.49L110.746 364.3L107.876 363.93L104.836 364.07L100.956 364.67Z" fill="#ddd"/>
<path d="M303.435 369.379L303.945 368.269L303.955 367.039L303.795 365.759L303.805 364.519L304.695 360.899L303.475 360.049L302.755 359.309L302.565 358.379L303.135 355.759L302.965 354.509L302.515 353.319L301.845 352.309L298.505 350.649L297.625 349.889L296.485 349.779L295.295 350.029L294.275 350.349L293.935 350.529L292.765 351.809L291.955 352.909L291.725 353.349L291.595 353.759L290.935 357.219L290.495 358.139L288.885 359.449L286.665 360.209L284.715 359.869L283.925 357.859L283.695 355.629L283.365 354.469L283.185 354.069L282.965 353.749L282.165 352.939L281.255 352.329L280.185 352.089L277.225 352.809L269.955 353.729L259.925 356.229L258.545 356.269L254.955 355.489L253.765 355.549L252.955 355.789L252.195 355.819L251.155 355.219L247.615 354.769L246.445 354.799L245.705 353.699L245.015 352.289L244.005 351.339L242.755 351.289L241.685 351.859L240.815 352.769L240.185 353.769L239.245 356.119L239.015 357.659L239.315 358.149L239.575 359.089L239.745 359.369L240.165 359.779L241.015 360.389L241.865 360.739L245.845 361.749L246.335 362.039L246.355 362.679L245.745 367.329L245.675 371.189L245.885 372.239L246.805 373.919L247.115 374.889L247.135 375.719L246.985 376.309L245.515 376.739L244.425 376.979L243.335 376.819L242.545 376.249L241.465 374.059L240.095 373.439L238.405 373.669L235.145 374.579V376.069L237.065 378.189L237.435 379.699L237.165 380.639L236.195 382.529L235.865 383.509L235.735 384.539L235.695 390.009L236.115 392.069L237.385 396.219L237.425 396.889L235.985 402.529L235.695 402.909L235.405 403.979L235.165 406.439L234.465 408.099L234.315 408.339L233.655 408.119L231.905 409.199L226.595 411.639L223.105 414.359L221.545 415.229L219.835 415.519L215.595 415.249L211.745 415.959L209.785 416.109L207.355 415.839L204.915 415.199L202.605 414.199L193.455 408.089H192.425L188.265 406.299L187.075 405.929L186.055 405.769L183.745 405.799L183.265 405.759L181.305 405.169L180.595 404.819L179.635 404.179L179.215 404.049L178.005 403.859L174.785 402.669L172.465 401.469L170.495 399.949L168.435 398.689L164.285 398.079L163.345 397.479L162.975 396.449L163.105 395.009L163.365 393.549L163.295 392.729L162.075 390.809L160.835 388.159L160.175 387.409L159.385 386.909L157.595 386.099L154.315 384.069L153.325 383.079L153.275 382.089L154.795 380.159L155.445 379.139L155.825 377.939L155.795 376.649L154.335 371.599L153.915 370.759L153.215 370.229L152.025 369.929L150.785 369.799L149.525 369.849L148.405 370.219L147.595 371.049L146.395 372.939L146.365 373.929L147.315 374.979L149.135 376.239L149.965 377.029L150.335 377.839L149.955 378.769L149.015 379.869L147.935 380.849L147.105 381.419L146.715 381.559L144.995 381.849L143.935 382.239L143.235 382.589L141.165 383.939L140.015 384.439L138.845 384.479L137.415 383.869L136.855 382.999L136.565 381.929L135.965 380.709L133.675 380.639L132.545 380.979L131.685 380.909L130.895 380.939L129.985 381.559L129.715 381.799L128.425 382.649L127.815 382.789L126.865 382.769L126.565 382.909L125.965 384.059L125.915 385.219L125.705 386.249L123.515 387.659L122.135 389.559L121.235 390.289L120.475 391.789L120.585 394.389L121.595 399.159L122.105 400.169L121.565 401.739L122.075 402.439L125.755 404.409L126.645 405.269L127.035 406.369L126.905 407.509L125.855 411.199L125.765 411.919L125.805 412.659L125.735 413.379L125.115 414.779L124.995 415.529L124.975 416.079L124.775 417.189L124.745 417.759L124.875 418.299L125.395 419.329L125.535 419.759L125.125 421.029L123.875 421.199L120.785 420.589L119.505 420.839L117.255 421.879L115.925 421.949L114.685 421.609L113.275 421.009L111.965 420.219L111.015 419.329L110.265 420.239L109.105 420.929L107.845 421.199L106.805 420.839L106.125 422.129L104.725 422.539L101.505 422.389L99.6053 422.479L97.9653 422.799L96.4453 423.479L94.9353 424.619L93.6153 425.819L92.5053 426.639L91.2653 427.159L89.5553 427.469L87.8253 427.499L86.1653 427.189L84.6153 426.489L83.2253 425.359L81.6053 424.299L79.6153 423.819L77.5153 423.839L75.5553 424.249L72.9753 425.309L71.6153 425.649L70.2353 425.519L69.0153 424.639L67.4553 423.289L65.8853 422.399L64.6953 422.899V423.479L64.8353 424.689L65.2453 425.219L65.6553 425.359L65.9853 425.669L66.5153 426.359L68.6953 427.959L68.9553 428.289L69.2253 429.219L69.5953 429.469L69.9553 429.639L70.1253 429.829L77.6653 431.639L81.1053 434.049L81.5653 434.759L81.9253 435.569L82.1553 436.509L82.2253 437.559L82.1153 437.709L81.6153 438.059L81.5053 438.109L81.5553 438.439L81.7953 438.989L81.8653 439.209L82.2253 441.409L82.8453 441.939L83.7853 442.139H86.0653L87.2253 442.289L88.1353 442.649L91.7553 445.059L92.0853 445.639L92.3353 446.629L92.9853 447.359L93.3553 447.589L93.8853 449.779L94.4353 451.949L95.6253 455.009L96.0553 458.099L96.5053 459.179L98.6353 462.829L98.9753 464.219L99.0153 467.379L99.2753 468.449L101.155 471.719L102.165 474.349L103.055 475.359L104.055 476.289L104.965 477.429L105.395 478.469L105.845 481.339L105.945 481.959L105.385 483.089L105.195 483.699L105.175 484.319L105.445 484.899L106.315 485.849L106.485 486.449L106.365 487.209L106.195 487.819L106.095 488.409L106.195 489.109L106.715 490.289L111.035 496.429L111.795 497.859L112.255 500.969L112.815 501.999L115.185 503.759L119.455 506.249L121.515 507.919L121.905 508.989L122.135 509.629L121.815 510.239L121.355 510.799L120.975 511.369L120.915 512.029L121.125 512.519L122.875 515.289L123.665 516.189L124.645 516.649L125.935 516.459L127.135 515.619L129.305 513.239L130.475 512.449L131.435 512.259H132.555L133.675 512.409L134.625 512.649L135.835 513.369L138.135 515.229L139.425 515.579L140.695 515.309L141.645 514.869L142.635 514.629L143.985 514.999L147.485 517.159L150.405 518.299L150.665 518.769L149.225 520.869L148.865 522.119L149.035 523.159L150.085 525.179L150.565 526.469L150.575 527.569L150.135 528.639L148.105 531.229L147.835 531.919L147.605 543.099L148.055 545.699L149.355 547.919L156.615 555.669L156.725 556.589L157.425 557.849L157.485 558.879L157.325 559.949L157.305 560.859L157.665 561.609L158.615 562.209L160.685 564.019L161.815 564.759L163.045 565.049H163.255L171.035 564.989L172.865 564.739H173.425L173.955 564.879L174.925 565.349L175.605 565.439L185.515 565.239L193.845 565.069L194.315 565.169L195.095 565.649L195.415 565.719L196.045 565.129L197.895 564.469L198.925 563.789L199.235 563.479L199.415 563.139L200.175 560.949L201.165 558.809L203.685 554.869L207.545 549.959L208.935 547.169L209.275 544.069L208.925 542.659L207.755 540.069L207.395 538.699L207.425 537.499L209.905 529.539L211.025 527.269L212.605 525.349L213.825 524.649L215.115 524.519L219.145 525.139H220.435L225.515 524.399L226.325 524.369L227.965 524.539L229.345 524.909L231.545 526.199L232.815 526.639L235.625 526.469L238.415 525.389L243.675 522.599L246.065 521.749L247.305 521.159L248.025 520.459L248.665 519.489L249.565 518.809L250.665 518.569L251.875 518.859L254.435 519.899L256.985 520.599L257.965 521.219L258.965 522.089L260.055 522.729L261.315 522.669L262.105 521.969L262.475 520.909L262.545 519.699L262.255 517.119L262.325 516.029L262.685 515.009L263.385 513.739L264.345 511.429L264.875 508.689L264.895 505.909L264.075 502.209L264.425 501.239L265.305 500.599L267.915 500.129L271.295 498.399L272.075 497.539L272.295 496.199L271.925 494.929L270.935 494.299L269.685 493.879L268.805 493.019L268.255 491.869L267.715 489.359L266.665 487.069L266.375 485.769L265.895 484.879L264.755 484.259L259.395 482.029L257.665 481.679L256.445 481.309L256.085 480.569L256.175 479.189L255.575 475.249L255.685 473.939L256.185 472.819L257.655 470.739L258.675 468.709L259.585 465.919L259.805 463.119L258.755 461.119L256.985 459.009L256.885 456.769L257.865 454.499L260.355 450.979L261.255 450.139L262.205 450.099L263.385 451.109L263.705 451.299L265.405 451.379L266.085 451.279L267.395 450.829L268.555 450.979L269.395 451.719L270.175 452.619L271.165 453.209L271.735 453.419L273.955 454.759L274.985 455.699L276.335 457.259L276.975 457.379L278.085 457.059L279.175 456.849L280.215 456.809L281.155 457.039L283.095 458.789L283.205 461.019L281.855 462.979L278.415 464.259L277.785 465.049L276.955 467.049L276.835 468.179L277.825 470.199L277.695 471.509L276.815 472.709L275.705 473.139L274.505 472.969L273.375 472.349L272.555 472.389L272.135 473.539L272.075 475.049L272.315 476.139L278.855 487.649L279.895 489.019L281.075 489.209L282.215 488.949L283.335 488.889L284.435 488.709L288.305 486.159L288.485 485.529L287.925 484.919L284.785 483.159L283.375 481.739L283.055 481.149L283.215 480.749L284.135 479.929L284.825 478.949L286.595 475.689L287.255 473.499L287.895 472.539L289.085 471.629L290.055 471.069L290.665 470.299L290.785 468.729L290.125 464.169L290.455 461.499L291.545 459.679L293.415 458.609L296.085 458.169L298.245 458.259L300.365 458.639L304.425 459.839L304.765 459.899L306.245 459.939L308.165 459.699L308.295 460.059L308.855 461.049L309.315 461.539L313.335 463.409L313.615 463.929L314.855 465.439L316.415 468.209L317.415 469.819L317.775 471.059V471.409L320.345 473.639L322.655 473.839L327.885 473.119L327.125 472.189L326.615 471.149L325.735 468.829L325.625 467.609L326.195 466.579L326.995 465.559L327.545 464.369L327.555 461.949L326.265 457.129L325.965 454.729L325.645 453.719L324.785 452.759L320.835 449.119L318.755 447.749L318.175 447.009L317.355 446.339L315.985 445.979L313.425 445.779L312.535 445.599L305.565 442.029L303.775 441.449L302.765 440.849L301.935 440.149L301.515 439.549L301.355 437.669L302.875 429.579L301.665 426.449L300.035 423.939L298.355 422.559L296.955 422.809L295.195 423.579L293.375 422.889L291.645 421.799L290.145 421.379L288.105 420.989L286.415 419.899L285.055 419.479L283.955 421.089L283.495 421.929L281.355 424.449L280.485 425.109L275.605 426.189L273.745 425.719L272.295 424.959L271.385 424.019L271.115 422.989L271.295 420.979L271.655 419.099L272.455 417.469L273.945 416.199L281.245 411.579L281.795 410.849L282.295 408.629L282.775 407.529L284.245 405.829L284.865 404.719L285.265 403.489L285.665 402.619L286.385 401.969L287.745 401.379L288.915 400.999L289.815 400.569L290.315 399.829L290.295 398.519L289.765 394.479L289.915 391.909L290.105 390.999L290.995 388.979L291.345 387.899L291.845 386.919L293.755 385.009L294.915 382.859L297.285 379.969L298.995 377.069L299.755 374.879L300.215 373.899L300.365 373.309L299.605 369.229L299.025 367.349L298.885 366.579L298.455 365.259L296.835 362.959L296.455 361.809L299.585 360.779L300.055 361.839L301.065 366.199L301.485 367.069L302.085 367.889L303.435 369.379Z" fill="#ddd"/>
<path d="M392.825 30.1197L388.745 26.3097L386.645 25.0497L384.335 24.0997L379.555 22.9297L378.605 22.9397L375.975 23.7197L375.215 23.7397L373.975 23.5197L373.555 23.7097L373.045 24.0697L373.165 24.5297L373.215 25.2697L373.125 26.6797L373.085 26.8597L372.745 27.5997L372.375 28.0797L372.205 28.2197L372.035 28.2997L370.615 28.4797L366.585 28.0097L364.435 27.3797L363.555 27.2897L359.845 28.0097L358.145 28.9997L356.695 30.1997L356.295 30.7097L356.325 31.1797L357.565 31.8397L360.815 31.5497L361.635 32.3097L361.485 33.0397L359.065 35.6397L357.715 38.4897L357.485 39.4797L357.875 39.8297L358.655 39.7997L359.555 39.8597L360.475 40.0797L361.265 40.5597L359.505 42.5197L359.255 42.9797L359.655 43.9897L360.415 44.0297L361.245 43.6897L361.865 43.5497L362.515 44.1397L362.905 45.1397L363.095 46.2497L363.135 47.1997L362.905 49.2097V49.9897L363.235 50.6197L364.015 51.2397L364.215 51.6797L364.325 52.0497L364.365 52.3797L364.435 55.5697L363.425 60.6897L363.195 63.0797L363.615 65.0497L364.325 67.0097L364.815 69.6897L364.545 72.0497L363.005 73.0197L360.985 72.0597L360.545 72.7697L359.275 76.9897L359.315 78.3497L360.195 80.5697L360.345 81.9597L360.205 83.2797L359.115 88.8197L359.225 89.5197L359.605 90.4097L359.755 90.6397L360.555 91.5197L360.875 91.7397L361.395 91.9897L361.565 92.1297L361.885 92.7397L362.715 96.9297L363.035 97.4897L363.665 98.2197L363.735 98.5497L363.435 99.4797L362.855 100.44L362.165 101.13L361.475 101.24L361.715 103.81L361.675 104.89L361.425 106.43L361.445 107.62L361.275 108.24L360.895 109.13L360.995 109.39L362.615 110.74L363.395 111.13L364.575 111.27L365.675 111.61L366.535 112.45L367.865 114.61L368.215 116.41L367.975 118.98L367.345 121.48L366.505 123.05L364.695 125.03L363.555 127.05L362.925 129.32L362.695 132.05L362.855 132.96L363.625 134.64L363.775 135.77L363.755 137.03L363.625 138.28L363.185 139.38L362.245 140.21L361.375 142.78L361.265 143.34L361.255 143.93L361.305 144.67L361.695 146.27L363.035 149.09L363.465 150.57L363.455 151.35L363.345 152.03L363.415 152.71L364.395 154.15L364.735 154.9L364.935 155.71L365.035 156.54L365.005 158.13L365.065 158.89L365.355 159.67L365.725 160.37L366.005 160.8L366.405 161.29L367.675 162.05L367.775 162.32L367.355 167.59L367.415 169.07L367.755 170.17L369.645 173.59L370.595 174.73L371.705 175.67L372.865 176.22L373.145 176.41L373.325 176.78L373.635 177.96L373.985 180.75L374.475 181.97L376.775 185.71L377.245 187L377.675 189.99L377.685 191.58L377.565 193.17L379.205 194.95L380.225 195.86L381.015 196.94L383.145 200.87L383.695 202.26L384.025 203.73L384.175 206.31L384.455 208.19L384.445 209.2L384.225 210.15L383.825 210.94L380.835 215.51L382.195 216.96L382.775 218.44L382.655 219.9L382.085 221.33L380.545 224.05L380.105 225.22L380.115 226.43L380.735 227.87L382.395 229.92L382.715 230.61L382.725 231.78L382.175 234.44V235.76L383.415 239.67L383.465 240.01L383.455 240.39L383.255 241.44L382.625 242.61L382.325 243.68L381.795 250.54L381.605 251.52L380.625 254.04L380.425 255.51L380.595 256.93L380.905 258.35L381.095 259.79L380.995 260.87L380.595 261.22L379.815 261.11L378.585 260.8L377.475 260.62L376.145 260.6L374.895 260.87L374.015 261.58L373.455 262.94L373.555 264.06L374.215 265.02L375.365 265.91L377.005 266.87L378.085 267.66L378.585 268.82L378.525 270.86L378.095 272.03L376.595 274.16L376.125 275.22L374.665 277.09V277.81L374.955 278.43L375.315 279.03L375.535 279.7L374.795 281.2L372.735 281.19L368.265 279.93L366.115 280.5L366.275 282.67L368.235 287.76L368.375 290.56L368.025 293.28L366.995 295.71L365.075 297.65L363.945 298.47L363.185 299.32L363.045 300.18L363.805 301.06L364.355 301.29L365.805 301.67L366.505 302.02L368.395 303.5L368.345 306.05L366.915 308.55L365.115 310.91L363.895 313.02L366.725 312.68L368.155 312.7L369.255 313.29L369.635 314.13L370.015 316.5L370.285 317.48L370.755 318.11L371.225 318.59L371.495 319.2L371.315 320.21L373.615 320.28L375.355 320.6L376.335 321.68L376.355 324.03L375.075 327.6L375.385 328.8L376.055 329L379.315 326.74L380.375 325.68L382.235 322.27L383.995 322.13L385.425 321.25L386.595 320.18L387.215 318.49L387.315 317.29L387.475 316.43L387.875 315.68L391.235 312.35L391.955 311.44L395.575 305.54L396.985 303.76L398.685 302.02L400.275 300.73L402.105 299.88L406.505 299.22L408.175 298.79L409.635 297.96L411.015 296.53L411.495 292.78L412.465 288.87L413.255 286.85L417.995 279.49L420.915 276.2L427.645 270.34L428.425 269.14L427.935 268.4L425.585 267.45L424.705 266.67L424.245 265.3L424.235 263.95L431.875 234.48L431.905 232.98L431.595 230.73L431.705 229.7L432.185 228.62L434.025 226.37L438.145 222.31L439.655 219.82L439.975 218.43L440.175 216.95L440.605 215.57L441.675 214.47L442.835 214.09L464.095 214.24L465.625 214.09L466.635 213.69L467.535 213.13L468.095 212.88L468.105 212.87L467.835 212.51L468.785 210.96L469.125 208.64L469.255 198.2L468.595 192.29L467.215 186.04L467.185 183.07L468.755 178.14L469.485 174.02L470.335 172.29L471.115 171.75L473.215 170.83L473.735 170.13L474.035 169.35L474.485 169.03L475.085 168.85L475.835 168.49L476.575 167.92L477.155 167.32L479.205 164.41L483.605 158.13L485.755 154.1L486.345 153.45L487.605 152.83L488.025 152.16L488.835 150.17L495.935 140.43L497.555 136.86L500.765 132.52L498.225 129.82L493.875 123.89L490.405 117.94L487.865 115.74L484.905 114.06L481.865 112.8L477.705 110.12L474.915 106.19L470.775 97.1797L469.085 94.3397L467.265 91.9497L465.195 89.7797L461.125 86.4197L455.545 81.7897L446.295 75.8497L439.105 71.2297L437.495 69.6197L433.735 62.9197L429.585 55.5497L423.945 49.0997L418.375 42.7297L415.135 40.3997L411.515 39.0297L406.705 38.3397L405.195 37.8497L399.545 35.1197L396.445 33.4997L392.825 30.1197Z" fill="#ddd"/>
<path d="M261.625 0.149414L259.445 5.41941L255.985 13.7794L252.555 22.0594L249.215 30.1294L246.155 37.5094L244.225 42.1394L243.625 42.7494L242.665 42.1294L242.115 41.4694L241.865 40.5594L241.805 39.1494L241.645 38.6294L241.235 38.2094L240.685 37.9394L240.135 37.8394L239.455 37.5794L239.135 36.9594L238.865 35.5894L238.475 34.5594L238.245 34.2294L236.085 32.4094L235.315 31.9594L235.165 31.3794L235.195 30.1294L235.115 29.3094L234.915 28.8594L234.105 28.0394L232.085 25.1094L231.075 24.5194L229.775 23.3994L229.045 23.5094L227.885 23.9094L223.935 23.8294L222.105 24.2494L220.575 25.4094L219.765 26.5994L219.335 27.6894L219.155 28.8094L219.125 30.1294L218.975 31.2794L218.575 32.1794L217.995 32.8694L217.335 33.3294L216.915 33.4194L215.945 33.2994L215.515 33.3294L214.735 33.9794L214.425 34.0894L213.875 34.0294L213.415 33.8794L212.995 33.6494L212.575 33.3294L211.605 32.0094L211.295 31.7994L209.525 31.5594L206.055 30.5294L204.335 30.2994H200.695L200.185 30.4194L199.315 30.9594L198.865 31.0794H196.465L195.395 31.2594L193.745 32.0394L193.015 32.2094L191.875 32.2394L190.975 32.4494L190.305 33.0094L189.915 34.0894L188.885 34.0694L184.105 49.0294L183.865 50.1994L183.885 51.5894L184.175 52.9394L185.105 55.6794L185.255 58.4194L184.285 60.8294L185.015 61.3794L188.795 69.6894L189.535 70.5394L190.415 70.5494L197.435 72.3794L198.465 72.7994L204.345 78.3194L207.315 80.0994L208.595 81.6394L209.585 82.0394L215.825 82.9094L216.955 82.9394L217.675 82.4594L218.295 81.8094L221.185 80.2294L221.585 80.0994L222.725 79.8594L224.415 79.7094L225.755 79.9894L227.325 80.6694L228.735 81.6094L229.605 82.6694L230.055 83.0994L230.835 83.2494L240.045 83.5494L241.615 83.2394L248.985 79.7194L249.835 79.0394L250.605 78.1794L251.115 77.1694L252.415 73.3394L253.675 72.3794L255.745 72.3894L261.635 73.8094L268.745 77.3694L270.525 77.6794L271.205 77.4494L272.295 76.8794L273.335 76.1694L273.835 75.5094L274.685 74.6094L276.615 74.7394L279.295 75.1894L282.385 75.2794L287.655 74.5594L288.745 74.0394L289.565 73.1594L290.085 72.2494L290.625 71.4794L291.525 71.0394L292.125 71.1994L292.665 71.7994L293.065 72.7494L293.265 73.9394L291.655 77.7394L291.955 77.9794L296.435 76.7894L297.695 76.3094L298.525 76.1194L299.595 76.0394L303.385 76.4294L303.495 76.8194L304.225 78.4694L304.605 80.8194L304.975 81.7994L305.845 82.2094L307.165 82.8294L319.075 94.6794L320.465 96.3894L320.765 98.1294L320.705 99.1494L320.815 100.469L321.085 101.719L321.465 102.529L322.155 102.969L323.105 103.159L325.815 103.129L331.645 102.059L332.645 102.479L333.115 103.539L333.315 105.239L333.715 106.999L334.355 108.969L334.845 111.359L334.745 114.399L330.835 121.599L330.535 123.429L330.935 125.349L333.105 130.859L333.665 136.869L333.905 138.079L334.455 139.559L335.225 140.889L336.145 141.669L336.625 141.779L340.555 141.619L340.625 141.419L340.805 140.199L342.435 139.809L349.135 140.059L349.615 140.909L349.775 142.069L349.665 143.219L349.355 144.069L349.425 144.239L354.235 141.369L354.805 141.219L358.625 140.979L360.475 140.699L362.245 140.209L363.185 139.379L363.625 138.279L363.755 137.029L363.775 135.769L363.625 134.639L362.855 132.959L362.695 132.049L362.925 129.319L363.555 127.049L364.695 125.029L366.505 123.049L367.345 121.479L367.975 118.979L368.215 116.409L367.865 114.609L366.535 112.449L365.675 111.609L364.575 111.269L363.395 111.129L362.615 110.739L360.995 109.389L360.895 109.129L361.275 108.239L361.445 107.619L361.425 106.429L361.675 104.889L361.715 103.809L361.475 101.239L362.165 101.129L362.855 100.439L363.435 99.4794L363.735 98.5494L363.665 98.2194L363.035 97.4894L362.715 96.9294L361.885 92.7394L361.565 92.1294L361.395 91.9894L360.875 91.7394L360.555 91.5194L359.755 90.6394L359.605 90.4094L359.225 89.5194L359.115 88.8194L360.205 83.2794L360.345 81.9594L360.195 80.5694L359.315 78.3494L359.275 76.9894L360.545 72.7694L360.985 72.0594L363.005 73.0194L364.545 72.0494L364.815 69.6894L364.325 67.0094L363.615 65.0494L363.195 63.0794L363.425 60.6894L364.435 55.5694L364.365 52.3794L364.325 52.0494L364.215 51.6794L364.015 51.2394L363.235 50.6194L362.905 49.9894V49.2094L363.135 47.1994L363.095 46.2494L362.905 45.1394L362.515 44.1394L361.865 43.5494L361.245 43.6894L360.415 44.0294L359.655 43.9894L359.255 42.9794L359.505 42.5194L361.265 40.5594L360.475 40.0794L359.555 39.8594L358.655 39.7994L357.875 39.8294L357.485 39.4794L357.715 38.4894L359.065 35.6394L361.485 33.0394L361.635 32.3094L360.815 31.5494L357.565 31.8394L356.325 31.1794L356.295 30.7094L356.695 30.1994L358.145 28.9994L359.845 28.0094L363.555 27.2894L364.435 27.3794L366.585 28.0094L370.615 28.4794L372.035 28.2994L372.205 28.2194L372.375 28.0794L372.745 27.5994L373.085 26.8594L373.125 26.6794L373.215 25.2694L373.165 24.5294L373.045 24.0694L373.555 23.7094L373.975 23.5194L372.905 23.3294L371.925 23.5794L370.285 24.9794L369.245 25.2694L368.235 25.0994L367.425 24.7094L364.625 22.2594L363.155 21.3294L361.555 20.7894L359.865 20.8494L359.215 20.9594L356.805 21.3694L355.375 21.2394L352.635 20.4194L352.335 20.2594L352.005 19.9394L350.925 18.6194L350.115 17.9394L349.055 17.3394L348.135 17.3194L347.715 18.4194L346.775 19.7094L344.595 20.7794L340.225 21.9994L339.215 22.0594L336.335 21.5894L335.005 21.7994L334.285 22.4594L333.115 24.3294L331.785 24.3494L330.685 22.3094L329.135 17.7494L328.405 16.5694L327.485 15.4294L326.415 14.4394L325.245 13.7094L324.715 13.4894L323.195 13.1394L321.295 12.9194L321.215 12.7294L320.525 13.4094L320.445 14.3294L320.525 15.3494L320.365 16.3694L319.615 17.3594L318.515 18.0494L316.305 19.0894L314.545 20.7094L313.555 21.4094L311.185 21.6394L308.005 22.9594L306.995 23.1994L306.005 23.2894L305.035 23.1894L304.065 22.8694L303.025 22.8294L299.725 24.5494L297.745 25.0794L293.675 25.5494L291.055 25.5294L290.595 25.6594L290.155 25.6094L289.495 25.1094L289.205 24.6194L288.845 23.4294L288.415 23.0194L285.555 21.4594L284.725 20.7994L284.105 19.9894L283.675 19.0194L283.165 16.9394L282.825 16.2294L282.265 15.7994L281.645 15.4494L281.135 14.9794L280.875 14.4394L280.615 12.9194L280.505 12.6594L280.175 11.8294L279.625 11.1594L278.805 10.8194L277.545 10.7394L274.515 11.2694L273.545 11.0894L267.765 8.69941L267.325 8.33941L267.025 7.79941L266.985 7.31941L266.865 6.88941L266.345 6.48941L265.745 6.38941L265.515 6.11941L265.395 5.74941L265.195 5.35941L265.165 5.17941L265.175 4.59941L265.145 4.37941L264.965 4.18941L264.445 4.12941L264.215 3.92941L263.195 1.90941L262.555 0.969414L261.625 0.149414Z" fill="#ddd"/>
<path d="M216.955 82.9391L215.825 82.9091L209.585 82.0391L208.595 81.6391L207.315 80.0991L204.345 78.3191L198.465 72.7991L197.435 72.3791L190.415 70.5491L189.535 70.5391L188.795 69.6891L185.015 61.3791L184.285 60.8291L182.065 66.3191L181.875 67.4291L181.685 70.5291L181.195 72.0791L173.285 83.5491L168.135 101.569L168.215 102.619L168.635 103.489L168.805 103.959L168.825 104.429L168.345 105.229L167.555 106.029L166.935 106.959L166.985 108.169L168.225 110.349L168.465 111.169L168.475 112.499L167.425 118.569L166.965 119.639L166.135 119.979L164.685 119.579L164.195 119.309L163.885 119.079L163.535 118.899L162.885 118.789L162.435 118.799L146.365 121.139L144.995 121.599L144.925 121.629L144.195 121.969L144.005 122.139L144.015 122.429L143.655 123.829L143.575 124.409L143.385 124.969L142.855 125.549L142.385 125.749L141.355 125.829L140.905 126.019L140.425 126.559L130.395 143.379L129.835 144.899L129.685 146.419L129.535 147.099L129.045 147.839L128.485 148.289L127.325 148.909L126.805 149.349L126.405 149.969L125.455 152.349L124.925 155.339L124.465 156.629L123.425 157.839L121.425 158.989L120.945 159.469L120.795 159.969L120.785 160.219L122.195 161.429L124.235 166.299L125.715 167.889L127.075 169.049L128.315 169.689H129.465L132.445 168.719L133.975 168.469L135.455 168.599L136.555 168.439L137.665 167.529L138.965 166.179L145.705 160.849L146.545 159.659L148.005 156.109L148.345 155.859L150.565 156.059H152.185L152.705 156.139L152.865 156.429L153.385 157.179L154.755 157.359L156.235 157.369L157.105 157.599L157.345 157.849L158.665 158.609L159.125 159.239L159.815 160.689L160.465 161.429L162.725 163.309L162.965 163.639L164.805 166.739L166.125 168.279L166.675 169.579L167.065 172.329L167.845 174.779L168.915 175.289L169.985 175.139L170.985 174.519L173.225 172.109L175.345 170.279L177.405 168.789L178.635 168.359L179.015 168.949L178.755 172.569L178.995 177.409L179.615 178.429L181.415 180.259L184.505 185.039L184.605 185.459L183.975 186.359L182.905 187.419L182.465 188.549L183.725 189.639L184.625 190.199L187.865 193.519L187.735 195.669L186.895 197.279L185.925 198.569L185.415 199.799L185.535 200.769L185.825 201.899L185.925 203.019L185.495 203.979L185.295 204.649L186.885 208.079L185.575 210.449L184.085 212.029L181.345 214.159L180.495 215.039L179.595 216.169L178.915 217.289L178.765 218.149L178.785 218.869L177.465 221.919L177.325 223.549L177.335 225.089L177.445 226.059L177.605 225.999L178.075 224.899L178.845 224.159L179.855 223.789L181.055 223.809L181.775 224.729L178.305 232.689L178.695 235.689L179.495 237.989L180.555 239.739L181.725 241.089L183.015 241.919L184.285 242.019L186.915 240.759L187.495 240.659L188.105 240.899L188.665 241.689L188.675 242.599L188.515 243.569L188.595 244.519L189.315 245.559L190.375 245.959L192.825 245.929L198.905 246.489L199.405 246.459L200.695 246.079L201.165 246.109L201.485 246.359L201.765 246.709L202.105 247.049L202.605 247.309L203.165 247.459L205.655 247.609L206.735 247.849L208.915 248.629L216.585 250.109L218.145 251.379L219.145 251.959L220.185 252.329L223.765 252.339L224.585 252.729L224.765 254.209L223.965 255.739L223.335 257.389L224.035 259.219L225.315 260.539L225.815 260.819L226.155 260.899L226.465 260.869L227.105 260.729L227.815 260.759L228.715 260.979L229.535 261.379L229.975 261.929L230.065 262.569L230.085 263.759L230.275 264.369L230.535 264.869L230.885 265.319L231.335 265.569L231.895 265.499L232.475 264.879L232.665 264.089L232.925 263.409L233.715 263.119L235.555 263.329L237.345 263.879L242.435 266.139L243.185 266.709L244.255 268.209L245.525 269.649L245.785 270.319L246.595 271.269L251.575 274.999L252.425 274.959L253.935 274.159L254.735 273.979L255.205 274.059L255.615 274.179L256.045 274.239L256.545 274.109L260.325 271.989L260.775 271.509L261.265 270.789L261.565 270.469L261.955 270.259L262.465 270.169L263.435 270.109L263.935 269.909L266.415 268.139L273.965 264.569L277.155 263.739L277.655 263.499L278.075 263.219L279.415 261.889L279.515 261.729L279.905 260.709L280.075 260.479L280.535 260.189L282.045 259.879L283.485 259.339L284.015 259.229L284.545 259.239L285.905 259.599L287.175 259.629L288.535 259.399L289.725 258.809L290.485 257.759L290.595 257.159L290.525 256.599L290.185 255.479L290.135 254.709L290.425 254.399L290.915 254.209L291.395 253.809L291.725 253.189L293.145 247.349L293.415 246.839L293.945 246.409L306.385 245.799L312.555 246.859L313.495 247.639L313.425 249.609L311.155 260.479L310.455 261.259L306.945 263.159L304.905 263.629L302.755 263.179L302.875 264.799L303.925 265.799L307.315 267.069L307.755 267.359L308.265 267.769L308.845 268.339L309.865 269.739L309.965 270.119L310.045 272.829L310.445 275.469L311.385 277.919L313.125 280.069L316.525 281.759L326.255 283.739L332.435 286.449L335.005 290.229L336.905 293.639L338.615 295.929L340.575 296.319L341.805 296.249L343.375 296.549L344.505 297.189L344.295 298.499L344.635 298.979L347.785 302.229L347.695 302.269L345.825 301.599L344.455 301.839L341.835 303.759L341.165 304.049L336.565 304.389L335.315 304.309L334.435 304.379L334.095 304.839L334.245 306.369L334.705 308.349L335.475 310.119L336.545 311.049L339.395 311.619L340.495 312.439L340.645 314.039L340.025 315.809L335.415 323.289L335.575 326.379L335.475 327.399L335.555 328.299L336.905 331.219L337.275 331.819L337.965 332.299L338.915 332.539L340.055 332.429L342.815 329.709L343.615 329.419L345.235 329.989L347.145 332.919L348.495 333.679L349.615 333.409L352.155 331.569L354.005 330.489L359.475 328.519L361.125 327.459L361.665 325.909L361.525 314.939L363.895 313.019L365.115 310.909L366.915 308.549L368.345 306.049L368.395 303.499L366.505 302.019L365.805 301.669L364.355 301.289L363.805 301.059L363.045 300.179L363.185 299.319L363.945 298.469L365.075 297.649L366.995 295.709L368.025 293.279L368.375 290.559L368.235 287.759L366.275 282.669L366.115 280.499L368.265 279.929L372.735 281.189L374.795 281.199L375.535 279.699L375.315 279.029L374.955 278.429L374.665 277.809V277.089L376.125 275.219L376.595 274.159L378.095 272.029L378.525 270.859L378.585 268.819L378.085 267.659L377.005 266.869L375.365 265.909L374.215 265.019L373.555 264.059L373.455 262.939L374.015 261.579L374.895 260.869L376.145 260.599L377.475 260.619L378.585 260.799L379.815 261.109L380.595 261.219L380.995 260.869L381.095 259.789L380.905 258.349L380.595 256.929L380.425 255.509L380.625 254.039L381.605 251.519L381.795 250.539L382.325 243.679L382.625 242.609L383.255 241.439L383.455 240.389L383.465 240.009L383.415 239.669L382.175 235.759V234.439L382.725 231.779L382.715 230.609L382.395 229.919L380.735 227.869L380.115 226.429L380.105 225.219L380.545 224.049L382.085 221.329L382.655 219.899L382.775 218.439L382.195 216.959L380.835 215.509L383.825 210.939L384.225 210.149L384.445 209.199L384.455 208.189L384.175 206.309L384.025 203.729L383.695 202.259L383.145 200.869L381.015 196.939L380.225 195.859L379.205 194.949L377.565 193.169L377.685 191.579L377.675 189.989L377.245 186.999L376.775 185.709L374.475 181.969L373.985 180.749L373.635 177.959L373.325 176.779L373.145 176.409L372.865 176.219L371.705 175.669L370.595 174.729L369.645 173.589L367.755 170.169L367.415 169.069L367.355 167.589L367.775 162.319L367.675 162.049L366.405 161.289L366.005 160.799L365.725 160.369L365.355 159.669L365.065 158.889L365.005 158.129L365.035 156.539L364.935 155.709L364.735 154.899L364.395 154.149L363.415 152.709L363.345 152.029L363.455 151.349L363.465 150.569L363.035 149.089L361.695 146.269L361.305 144.669L361.255 143.929L361.265 143.339L361.375 142.779L362.245 140.209L360.475 140.699L358.625 140.979L354.805 141.219L354.235 141.369L349.425 144.239L349.355 144.069L349.665 143.219L349.775 142.069L349.615 140.909L349.135 140.059L342.435 139.809L340.805 140.199L340.625 141.419L340.555 141.619L336.625 141.779L336.145 141.669L335.225 140.889L334.455 139.559L333.905 138.079L333.665 136.869L333.105 130.859L330.935 125.349L330.535 123.429L330.835 121.599L334.745 114.399L334.845 111.359L334.355 108.969L333.715 106.999L333.315 105.239L333.115 103.539L332.645 102.479L331.645 102.059L325.815 103.129L323.105 103.159L322.155 102.969L321.465 102.529L321.085 101.719L320.815 100.469L320.705 99.1491L320.765 98.1291L320.465 96.3891L319.075 94.6791L307.165 82.8291L305.845 82.2091L304.975 81.7991L304.605 80.8191L304.225 78.4691L303.495 76.8191L303.385 76.4291L299.595 76.0391L298.525 76.1191L297.695 76.3091L296.435 76.7891L291.955 77.9791L291.655 77.7391L293.265 73.9391L293.065 72.7491L292.665 71.7991L292.125 71.1991L291.525 71.0391L290.625 71.4791L290.085 72.2491L289.565 73.1591L288.745 74.0391L287.655 74.5591L282.385 75.2791L279.295 75.1891L276.615 74.7391L274.685 74.6091L273.835 75.5091L273.335 76.1691L272.295 76.8791L271.205 77.4491L270.525 77.6791L268.745 77.3691L261.635 73.8091L255.745 72.3891L253.675 72.3791L252.415 73.3391L251.115 77.1691L250.605 78.1791L249.835 79.0391L248.985 79.7191L241.615 83.2391L240.045 83.5491L230.835 83.2491L230.055 83.0991L229.605 82.6691L228.735 81.6091L227.325 80.6691L225.755 79.9891L224.415 79.7091L222.725 79.8591L221.585 80.0991L221.185 80.2291L218.295 81.8091L217.675 82.4591L216.955 82.9391Z" fill="#ddd"/>
</svg>
